<svg width="136" height="95" viewBox="0 0 136 95" fill="none" xmlns="http://www.w3.org/2000/svg">
<path d="M23.4 22.6V73H11.736V34.408L1.296 38.584V28.504L16.056 22.6H23.4Z" fill="#C7D2FE"/>
<path d="M45.36 32.6C45.36 33.8 45.136 34.936 44.688 36.008C44.24 37.064 43.624 37.984 42.84 38.768C42.072 39.536 41.16 40.144 40.104 40.592C39.048 41.04 37.92 41.264 36.72 41.264C35.52 41.264 34.384 41.04 33.312 40.592C32.256 40.144 31.336 39.536 30.552 38.768C29.784 37.984 29.176 37.064 28.728 36.008C28.28 34.936 28.056 33.8 28.056 32.6C28.056 31.4 28.28 30.272 28.728 29.216C29.176 28.144 29.784 27.224 30.552 26.456C31.336 25.672 32.256 25.056 33.312 24.608C34.384 24.16 35.52 23.936 36.72 23.936C37.92 23.936 39.048 24.16 40.104 24.608C41.16 25.056 42.072 25.672 42.84 26.456C43.624 27.224 44.24 28.144 44.688 29.216C45.136 30.272 45.36 31.4 45.36 32.6ZM43.488 32.6C43.488 31.624 43.312 30.712 42.96 29.864C42.608 29 42.128 28.264 41.52 27.656C40.928 27.032 40.216 26.544 39.384 26.192C38.552 25.824 37.664 25.64 36.72 25.64C35.76 25.64 34.864 25.824 34.032 26.192C33.2 26.544 32.48 27.032 31.872 27.656C31.28 28.264 30.808 29 30.456 29.864C30.104 30.712 29.928 31.624 29.928 32.6C29.928 33.576 30.104 34.488 30.456 35.336C30.808 36.184 31.28 36.92 31.872 37.544C32.48 38.168 33.2 38.664 34.032 39.032C34.864 39.384 35.76 39.56 36.72 39.56C37.664 39.56 38.552 39.384 39.384 39.032C40.216 38.664 40.928 38.168 41.52 37.544C42.128 36.92 42.608 36.184 42.96 35.336C43.312 34.488 43.488 33.576 43.488 32.6ZM48.2543 24.2H50.1023L60.2063 37.832V24.2H61.9583V41H60.3263L50.0063 27.008V41H48.2543V24.2ZM65.6449 41V24.2H77.6689V25.832H67.4929V31.712H74.1409V33.32H67.4929V39.368H77.7649V41H65.6449ZM28.848 73V56.2H34.392C35.656 56.2 36.832 56.416 37.92 56.848C39.008 57.264 39.944 57.84 40.728 58.576C41.512 59.312 42.12 60.2 42.552 61.24C43 62.264 43.224 63.384 43.224 64.6C43.224 65.816 43 66.944 42.552 67.984C42.12 69.008 41.512 69.888 40.728 70.624C39.96 71.36 39.032 71.944 37.944 72.376C36.856 72.792 35.672 73 34.392 73H28.848ZM34.488 57.88H30.696V71.32H34.488C35.448 71.32 36.352 71.152 37.2 70.816C38.048 70.464 38.776 69.992 39.384 69.4C39.992 68.792 40.472 68.08 40.824 67.264C41.176 66.432 41.352 65.544 41.352 64.6C41.352 63.656 41.176 62.776 40.824 61.96C40.472 61.128 39.992 60.416 39.384 59.824C38.776 59.216 38.048 58.744 37.2 58.408C36.352 58.056 35.448 57.88 34.488 57.88ZM46.6734 58.672C46.3534 58.672 46.0734 58.552 45.8334 58.312C45.5934 58.072 45.4734 57.792 45.4734 57.472C45.4734 57.136 45.5934 56.856 45.8334 56.632C46.0734 56.392 46.3534 56.272 46.6734 56.272C47.0094 56.272 47.2894 56.392 47.5134 56.632C47.7534 56.856 47.8734 57.136 47.8734 57.472C47.8734 57.792 47.7534 58.072 47.5134 58.312C47.2894 58.552 47.0094 58.672 46.6734 58.672ZM47.5614 60.976V73H45.7854V60.976H47.5614ZM56.2061 71.608C56.8461 71.608 57.4621 71.48 58.0541 71.224C58.6461 70.968 59.1981 70.592 59.7101 70.096L60.8141 71.296C60.1741 71.904 59.4541 72.376 58.6541 72.712C57.8541 73.048 57.0221 73.216 56.1581 73.216C55.3101 73.216 54.5101 73.056 53.7581 72.736C53.0061 72.416 52.3581 71.976 51.8141 71.416C51.2701 70.856 50.8381 70.192 50.5181 69.424C50.1981 68.656 50.0381 67.84 50.0381 66.976C50.0381 66.112 50.1981 65.304 50.5181 64.552C50.8381 63.784 51.2701 63.12 51.8141 62.56C52.3581 62 53.0061 61.56 53.7581 61.24C54.5101 60.904 55.3101 60.736 56.1581 60.736C57.0221 60.736 57.8621 60.904 58.6781 61.24C59.5101 61.576 60.2381 62.04 60.8621 62.632L59.7341 63.928C59.2541 63.432 58.7021 63.048 58.0781 62.776C57.4541 62.504 56.8221 62.368 56.1821 62.368C55.5741 62.368 54.9981 62.488 54.4541 62.728C53.9101 62.968 53.4381 63.296 53.0381 63.712C52.6541 64.128 52.3501 64.616 52.1261 65.176C51.9021 65.736 51.7901 66.336 51.7901 66.976C51.7901 67.632 51.9021 68.248 52.1261 68.824C52.3661 69.384 52.6781 69.872 53.0621 70.288C53.4621 70.688 53.9341 71.008 54.4781 71.248C55.0221 71.488 55.5981 71.608 56.2061 71.608ZM64.6172 70.312V62.488H62.0252V60.976H64.6172V57.928L66.3692 57.472V60.976H69.9932V62.488H66.3692V69.856C66.3692 70.496 66.5132 70.96 66.8012 71.248C67.0892 71.52 67.5612 71.656 68.2172 71.656C68.5532 71.656 68.8492 71.632 69.1052 71.584C69.3772 71.536 69.6652 71.456 69.9692 71.344V72.904C69.6652 73.016 69.3212 73.096 68.9372 73.144C68.5692 73.192 68.2092 73.216 67.8572 73.216C66.8172 73.216 66.0172 72.968 65.4572 72.472C64.8972 71.976 64.6172 71.256 64.6172 70.312ZM72.7828 58.672C72.4628 58.672 72.1828 58.552 71.9428 58.312C71.7028 58.072 71.5828 57.792 71.5828 57.472C71.5828 57.136 71.7028 56.856 71.9428 56.632C72.1828 56.392 72.4628 56.272 72.7828 56.272C73.1188 56.272 73.3988 56.392 73.6228 56.632C73.8628 56.856 73.9828 57.136 73.9828 57.472C73.9828 57.792 73.8628 58.072 73.6228 58.312C73.3988 58.552 73.1188 58.672 72.7828 58.672ZM73.6708 60.976V73H71.8948V60.976H73.6708ZM76.1475 66.976C76.1475 66.112 76.3075 65.296 76.6275 64.528C76.9475 63.76 77.3795 63.096 77.9235 62.536C78.4835 61.976 79.1395 61.536 79.8915 61.216C80.6435 60.896 81.4435 60.736 82.2915 60.736C83.1395 60.736 83.9315 60.896 84.6675 61.216C85.4195 61.536 86.0675 61.976 86.6115 62.536C87.1715 63.096 87.6115 63.76 87.9315 64.528C88.2515 65.296 88.4115 66.112 88.4115 66.976C88.4115 67.856 88.2515 68.68 87.9315 69.448C87.6115 70.216 87.1715 70.88 86.6115 71.44C86.0675 72 85.4195 72.44 84.6675 72.76C83.9315 73.08 83.1395 73.24 82.2915 73.24C81.4435 73.24 80.6435 73.08 79.8915 72.76C79.1395 72.44 78.4835 72 77.9235 71.44C77.3795 70.88 76.9475 70.216 76.6275 69.448C76.3075 68.68 76.1475 67.856 76.1475 66.976ZM82.2915 71.656C82.8995 71.656 83.4675 71.536 83.9955 71.296C84.5395 71.056 85.0035 70.728 85.3875 70.312C85.7875 69.88 86.0995 69.384 86.3235 68.824C86.5475 68.248 86.6595 67.632 86.6595 66.976C86.6595 66.32 86.5475 65.712 86.3235 65.152C86.0995 64.576 85.7875 64.08 85.3875 63.664C85.0035 63.248 84.5395 62.92 83.9955 62.68C83.4675 62.44 82.8995 62.32 82.2915 62.32C81.6835 62.32 81.1075 62.44 80.5635 62.68C80.0355 62.92 79.5715 63.248 79.1715 63.664C78.7875 64.08 78.4755 64.576 78.2355 65.152C78.0115 65.712 77.8995 66.32 77.8995 66.976C77.8995 67.632 78.0115 68.248 78.2355 68.824C78.4595 69.384 78.7635 69.88 79.1475 70.312C79.5475 70.728 80.0195 71.056 80.5635 71.296C81.1075 71.536 81.6835 71.656 82.2915 71.656ZM90.8792 73V60.976H92.6552V62.392C93.1192 61.848 93.6712 61.44 94.3112 61.168C94.9512 60.88 95.6632 60.736 96.4472 60.736C97.8072 60.736 98.9192 61.168 99.7832 62.032C100.647 62.896 101.079 64.016 101.079 65.392V73H99.3272V65.752C99.3272 64.696 99.0232 63.856 98.4152 63.232C97.8072 62.608 96.9912 62.296 95.9672 62.296C95.2472 62.296 94.5992 62.456 94.0232 62.776C93.4632 63.096 93.0072 63.552 92.6552 64.144V73H90.8792ZM107.843 73.216C106.531 73.216 105.459 72.88 104.627 72.208C103.811 71.536 103.403 70.664 103.403 69.592C103.403 68.472 103.835 67.584 104.699 66.928C105.563 66.256 106.731 65.92 108.203 65.92C108.843 65.92 109.459 65.992 110.051 66.136C110.659 66.28 111.219 66.48 111.731 66.736V65.152C111.731 64.192 111.459 63.472 110.915 62.992C110.371 62.496 109.579 62.248 108.539 62.248C107.947 62.248 107.347 62.336 106.739 62.512C106.147 62.672 105.491 62.936 104.771 63.304L104.099 61.936C104.963 61.52 105.763 61.216 106.499 61.024C107.235 60.832 107.971 60.736 108.707 60.736C110.227 60.736 111.395 61.096 112.211 61.816C113.043 62.536 113.459 63.568 113.459 64.912V73H111.731V71.824C111.187 72.288 110.587 72.64 109.931 72.88C109.291 73.104 108.595 73.216 107.843 73.216ZM105.107 69.544C105.107 70.216 105.387 70.768 105.947 71.2C106.523 71.616 107.259 71.824 108.155 71.824C108.875 71.824 109.531 71.712 110.123 71.488C110.715 71.264 111.251 70.912 111.731 70.432V68.176C111.235 67.84 110.699 67.6 110.123 67.456C109.563 67.296 108.939 67.216 108.251 67.216C107.291 67.216 106.523 67.432 105.947 67.864C105.387 68.28 105.107 68.84 105.107 69.544ZM116.426 73V60.976H118.202V62.68C118.554 62.056 119.018 61.576 119.594 61.24C120.17 60.888 120.826 60.712 121.562 60.712C121.786 60.712 121.986 60.728 122.162 60.76C122.338 60.776 122.514 60.816 122.69 60.88V62.512C122.482 62.448 122.274 62.4 122.066 62.368C121.858 62.32 121.65 62.296 121.442 62.296C120.706 62.296 120.058 62.512 119.498 62.944C118.938 63.36 118.506 63.968 118.202 64.768V73H116.426ZM127.765 74.56L128.461 72.976L123.565 60.976H125.533L129.421 70.84L133.621 60.976H135.541L129.565 74.8C129.053 75.952 128.485 76.784 127.861 77.296C127.237 77.808 126.445 78.064 125.485 78.064C125.261 78.064 125.045 78.048 124.837 78.016C124.645 78 124.485 77.976 124.357 77.944V76.336C124.517 76.368 124.669 76.392 124.813 76.408C124.973 76.424 125.157 76.432 125.365 76.432C125.909 76.432 126.373 76.28 126.757 75.976C127.141 75.672 127.477 75.2 127.765 74.56Z" fill="white"/>
</svg>
